<mxfile host="app.diagrams.net" modified="2023-12-14T11:24:35.920Z" agent="Mozilla/5.0 (Windows NT 10.0; Win64; x64) AppleWebKit/537.36 (KHTML, like Gecko) Chrome/119.0.0.0 Safari/537.36" etag="OGkdr9O90PkcheHZ4Y39" version="22.1.8" type="google">
  <diagram name="Страница — 1" id="2O8vgKkb6-TxOegUujl5">
    <mxGraphModel grid="1" page="1" gridSize="10" guides="1" tooltips="1" connect="1" arrows="1" fold="1" pageScale="1" pageWidth="827" pageHeight="1169" math="0" shadow="0">
      <root>
        <mxCell id="0" />
        <mxCell id="1" parent="0" />
        <mxCell id="x7zU9BqlaxM26_jvxdfh-1" style="edgeStyle=orthogonalEdgeStyle;rounded=0;orthogonalLoop=1;jettySize=auto;html=1;entryX=0;entryY=0.5;entryDx=0;entryDy=0;" edge="1" parent="1" source="x7zU9BqlaxM26_jvxdfh-3" target="x7zU9BqlaxM26_jvxdfh-11">
          <mxGeometry relative="1" as="geometry" />
        </mxCell>
        <mxCell id="x7zU9BqlaxM26_jvxdfh-2" value="Заказ" style="edgeLabel;html=1;align=center;verticalAlign=middle;resizable=0;points=[];" vertex="1" connectable="0" parent="x7zU9BqlaxM26_jvxdfh-1">
          <mxGeometry x="-0.3361" y="-2" relative="1" as="geometry">
            <mxPoint x="7" y="-18" as="offset" />
          </mxGeometry>
        </mxCell>
        <mxCell id="x7zU9BqlaxM26_jvxdfh-3" value="&lt;br&gt;Оформление&lt;br&gt;заказа&amp;nbsp;&lt;br&gt;&amp;nbsp; &amp;nbsp; &amp;nbsp; &amp;nbsp; &amp;nbsp; &amp;nbsp; &amp;nbsp; &amp;nbsp; &amp;nbsp; &amp;nbsp; &amp;nbsp; &amp;nbsp; &amp;nbsp; &amp;nbsp;А0" style="html=1;whiteSpace=wrap;" vertex="1" parent="1">
          <mxGeometry x="210" y="650" width="120" height="60" as="geometry" />
        </mxCell>
        <mxCell id="x7zU9BqlaxM26_jvxdfh-5" value="" style="endArrow=classic;html=1;rounded=0;entryX=0.5;entryY=0;entryDx=0;entryDy=0;strokeWidth=0.5;" edge="1" parent="1" target="x7zU9BqlaxM26_jvxdfh-3">
          <mxGeometry width="50" height="50" relative="1" as="geometry">
            <mxPoint x="270" y="590" as="sourcePoint" />
            <mxPoint x="230" y="780" as="targetPoint" />
            <Array as="points">
              <mxPoint x="270" y="620" />
            </Array>
          </mxGeometry>
        </mxCell>
        <mxCell id="x7zU9BqlaxM26_jvxdfh-6" value="Менеджер" style="edgeLabel;html=1;align=center;verticalAlign=middle;resizable=0;points=[];" vertex="1" connectable="0" parent="x7zU9BqlaxM26_jvxdfh-5">
          <mxGeometry x="0.0134" y="1" relative="1" as="geometry">
            <mxPoint x="-37" y="10" as="offset" />
          </mxGeometry>
        </mxCell>
        <mxCell id="x7zU9BqlaxM26_jvxdfh-7" value="" style="endArrow=classic;html=1;rounded=0;" edge="1" parent="1">
          <mxGeometry width="50" height="50" relative="1" as="geometry">
            <mxPoint x="270" y="840" as="sourcePoint" />
            <mxPoint x="270" y="710" as="targetPoint" />
          </mxGeometry>
        </mxCell>
        <mxCell id="x7zU9BqlaxM26_jvxdfh-8" value="Проверка наличия&lt;br&gt;товара" style="edgeLabel;html=1;align=center;verticalAlign=middle;resizable=0;points=[];" vertex="1" connectable="0" parent="x7zU9BqlaxM26_jvxdfh-7">
          <mxGeometry x="-0.2111" y="1" relative="1" as="geometry">
            <mxPoint x="59" y="-10" as="offset" />
          </mxGeometry>
        </mxCell>
        <mxCell id="x7zU9BqlaxM26_jvxdfh-9" style="edgeStyle=orthogonalEdgeStyle;rounded=0;orthogonalLoop=1;jettySize=auto;html=1;entryX=0;entryY=0.5;entryDx=0;entryDy=0;" edge="1" parent="1" source="x7zU9BqlaxM26_jvxdfh-11" target="x7zU9BqlaxM26_jvxdfh-16">
          <mxGeometry relative="1" as="geometry" />
        </mxCell>
        <mxCell id="x7zU9BqlaxM26_jvxdfh-10" value="Счет" style="edgeLabel;html=1;align=center;verticalAlign=middle;resizable=0;points=[];" vertex="1" connectable="0" parent="x7zU9BqlaxM26_jvxdfh-9">
          <mxGeometry x="-0.5808" y="1" relative="1" as="geometry">
            <mxPoint x="5" y="-9" as="offset" />
          </mxGeometry>
        </mxCell>
        <mxCell id="x7zU9BqlaxM26_jvxdfh-11" value="&lt;br&gt;Оформление&lt;br&gt;счета&amp;nbsp;&lt;br&gt;&amp;nbsp; &amp;nbsp; &amp;nbsp; &amp;nbsp; &amp;nbsp; &amp;nbsp; &amp;nbsp; &amp;nbsp; &amp;nbsp; &amp;nbsp; &amp;nbsp; &amp;nbsp; &amp;nbsp; &amp;nbsp;А1" style="html=1;whiteSpace=wrap;" vertex="1" parent="1">
          <mxGeometry x="420" y="680" width="120" height="60" as="geometry" />
        </mxCell>
        <mxCell id="x7zU9BqlaxM26_jvxdfh-12" value="" style="endArrow=classic;html=1;rounded=0;" edge="1" parent="1">
          <mxGeometry width="50" height="50" relative="1" as="geometry">
            <mxPoint x="479.50000000000006" y="600" as="sourcePoint" />
            <mxPoint x="479.83" y="680" as="targetPoint" />
          </mxGeometry>
        </mxCell>
        <mxCell id="x7zU9BqlaxM26_jvxdfh-13" value="Менеджер" style="edgeLabel;html=1;align=center;verticalAlign=middle;resizable=0;points=[];" vertex="1" connectable="0" parent="x7zU9BqlaxM26_jvxdfh-12">
          <mxGeometry x="-0.3067" y="2" relative="1" as="geometry">
            <mxPoint x="-38" y="-18" as="offset" />
          </mxGeometry>
        </mxCell>
        <mxCell id="x7zU9BqlaxM26_jvxdfh-14" style="edgeStyle=orthogonalEdgeStyle;rounded=0;orthogonalLoop=1;jettySize=auto;html=1;entryX=0;entryY=0.5;entryDx=0;entryDy=0;" edge="1" parent="1" source="x7zU9BqlaxM26_jvxdfh-16" target="x7zU9BqlaxM26_jvxdfh-24">
          <mxGeometry relative="1" as="geometry" />
        </mxCell>
        <mxCell id="x7zU9BqlaxM26_jvxdfh-15" value="Накладная" style="edgeLabel;html=1;align=center;verticalAlign=middle;resizable=0;points=[];" vertex="1" connectable="0" parent="x7zU9BqlaxM26_jvxdfh-14">
          <mxGeometry x="-0.5556" y="3" relative="1" as="geometry">
            <mxPoint x="16" y="-7" as="offset" />
          </mxGeometry>
        </mxCell>
        <mxCell id="x7zU9BqlaxM26_jvxdfh-16" value="&lt;br&gt;Оформление&lt;br&gt;накладных&amp;nbsp;&lt;br&gt;&amp;nbsp; &amp;nbsp; &amp;nbsp; &amp;nbsp; &amp;nbsp; &amp;nbsp; &amp;nbsp; &amp;nbsp; &amp;nbsp; &amp;nbsp; &amp;nbsp; &amp;nbsp; &amp;nbsp; &amp;nbsp;А2" style="html=1;whiteSpace=wrap;" vertex="1" parent="1">
          <mxGeometry x="580" y="750" width="120" height="60" as="geometry" />
        </mxCell>
        <mxCell id="x7zU9BqlaxM26_jvxdfh-17" value="Клиент" style="edgeLabel;html=1;align=center;verticalAlign=middle;resizable=0;points=[];" vertex="1" connectable="0" parent="1">
          <mxGeometry x="162.30769230769238" y="687" as="geometry" />
        </mxCell>
        <mxCell id="x7zU9BqlaxM26_jvxdfh-18" value="" style="endArrow=classic;html=1;rounded=0;" edge="1" parent="1">
          <mxGeometry width="50" height="50" relative="1" as="geometry">
            <mxPoint x="660" y="640" as="sourcePoint" />
            <mxPoint x="660" y="750" as="targetPoint" />
          </mxGeometry>
        </mxCell>
        <mxCell id="x7zU9BqlaxM26_jvxdfh-19" value="Бухгалтер" style="edgeLabel;html=1;align=center;verticalAlign=middle;resizable=0;points=[];" vertex="1" connectable="0" parent="x7zU9BqlaxM26_jvxdfh-18">
          <mxGeometry x="-0.3067" y="2" relative="1" as="geometry">
            <mxPoint x="-38" as="offset" />
          </mxGeometry>
        </mxCell>
        <mxCell id="x7zU9BqlaxM26_jvxdfh-20" value="" style="endArrow=classic;html=1;rounded=0;entryX=0.5;entryY=1;entryDx=0;entryDy=0;" edge="1" parent="1" target="x7zU9BqlaxM26_jvxdfh-16">
          <mxGeometry width="50" height="50" relative="1" as="geometry">
            <mxPoint x="640" y="900" as="sourcePoint" />
            <mxPoint x="710" y="970" as="targetPoint" />
          </mxGeometry>
        </mxCell>
        <mxCell id="x7zU9BqlaxM26_jvxdfh-21" value="Оплата&lt;br&gt;клиентом" style="edgeLabel;html=1;align=center;verticalAlign=middle;resizable=0;points=[];" vertex="1" connectable="0" parent="x7zU9BqlaxM26_jvxdfh-20">
          <mxGeometry x="-0.1626" relative="1" as="geometry">
            <mxPoint x="33" y="1" as="offset" />
          </mxGeometry>
        </mxCell>
        <mxCell id="x7zU9BqlaxM26_jvxdfh-22" style="edgeStyle=orthogonalEdgeStyle;rounded=0;orthogonalLoop=1;jettySize=auto;html=1;" edge="1" parent="1" source="x7zU9BqlaxM26_jvxdfh-24">
          <mxGeometry relative="1" as="geometry">
            <mxPoint x="1000" y="990" as="targetPoint" />
            <Array as="points">
              <mxPoint x="940" y="810" />
              <mxPoint x="940" y="920" />
              <mxPoint x="1000" y="920" />
            </Array>
          </mxGeometry>
        </mxCell>
        <mxCell id="x7zU9BqlaxM26_jvxdfh-23" value="Товар" style="edgeLabel;html=1;align=center;verticalAlign=middle;resizable=0;points=[];" vertex="1" connectable="0" parent="x7zU9BqlaxM26_jvxdfh-22">
          <mxGeometry x="0.3653" relative="1" as="geometry">
            <mxPoint x="-20" y="-39" as="offset" />
          </mxGeometry>
        </mxCell>
        <mxCell id="x7zU9BqlaxM26_jvxdfh-24" value="&lt;br&gt;Выдача&lt;br&gt;товара&amp;nbsp;&lt;br&gt;&amp;nbsp; &amp;nbsp; &amp;nbsp; &amp;nbsp; &amp;nbsp; &amp;nbsp; &amp;nbsp; &amp;nbsp; &amp;nbsp; &amp;nbsp; &amp;nbsp; &amp;nbsp; &amp;nbsp; &amp;nbsp;А3" style="html=1;whiteSpace=wrap;" vertex="1" parent="1">
          <mxGeometry x="810" y="780" width="120" height="60" as="geometry" />
        </mxCell>
        <mxCell id="x7zU9BqlaxM26_jvxdfh-25" value="" style="endArrow=classic;html=1;rounded=0;" edge="1" parent="1">
          <mxGeometry width="50" height="50" relative="1" as="geometry">
            <mxPoint x="869.5" y="710" as="sourcePoint" />
            <mxPoint x="869.5" y="780" as="targetPoint" />
          </mxGeometry>
        </mxCell>
        <mxCell id="x7zU9BqlaxM26_jvxdfh-26" value="Кладовщик" style="edgeLabel;html=1;align=center;verticalAlign=middle;resizable=0;points=[];" vertex="1" connectable="0" parent="x7zU9BqlaxM26_jvxdfh-25">
          <mxGeometry x="-0.4778" y="-1" relative="1" as="geometry">
            <mxPoint x="-41" as="offset" />
          </mxGeometry>
        </mxCell>
        <mxCell id="x7zU9BqlaxM26_jvxdfh-27" value="" style="endArrow=classic;html=1;rounded=0;entryX=0.5;entryY=1;entryDx=0;entryDy=0;" edge="1" parent="1" target="x7zU9BqlaxM26_jvxdfh-11">
          <mxGeometry width="50" height="50" relative="1" as="geometry">
            <mxPoint x="480" y="930" as="sourcePoint" />
            <mxPoint x="479.33" y="950" as="targetPoint" />
          </mxGeometry>
        </mxCell>
        <mxCell id="x7zU9BqlaxM26_jvxdfh-28" value="Информационные системы" style="edgeLabel;html=1;align=center;verticalAlign=middle;resizable=0;points=[];rotation=-90;" vertex="1" connectable="0" parent="x7zU9BqlaxM26_jvxdfh-27">
          <mxGeometry x="-0.2341" relative="1" as="geometry">
            <mxPoint x="-20" y="9" as="offset" />
          </mxGeometry>
        </mxCell>
        <mxCell id="x7zU9BqlaxM26_jvxdfh-29" value="" style="endArrow=classic;html=1;rounded=0;" edge="1" parent="1">
          <mxGeometry width="50" height="50" relative="1" as="geometry">
            <mxPoint x="880" y="970" as="sourcePoint" />
            <mxPoint x="880" y="840" as="targetPoint" />
          </mxGeometry>
        </mxCell>
        <mxCell id="x7zU9BqlaxM26_jvxdfh-30" value="Информационные системы" style="edgeLabel;html=1;align=center;verticalAlign=middle;resizable=0;points=[];rotation=-90;" vertex="1" connectable="0" parent="x7zU9BqlaxM26_jvxdfh-29">
          <mxGeometry x="-0.2341" relative="1" as="geometry">
            <mxPoint x="-20" y="9" as="offset" />
          </mxGeometry>
        </mxCell>
      </root>
    </mxGraphModel>
  </diagram>
</mxfile>
